Coordinates
version=1
nRows=17
nColumns=40
inDegrees=yes

Units are S.I. units (second, meters, Newtons, ...)
Angles are in degrees.

endheader
time	pelvis_tilt	pelvis_list	pelvis_rotation	pelvis_tx	pelvis_ty	pelvis_tz	hip_flexion_r	hip_adduction_r	hip_rotation_r	knee_angle_r	knee_angle_r_beta	ankle_angle_r	subtalar_angle_r	mtp_angle_r	hip_flexion_l	hip_adduction_l	hip_rotation_l	knee_angle_l	knee_angle_l_beta	ankle_angle_l	subtalar_angle_l	mtp_angle_l	lumbar_extension	lumbar_bending	lumbar_rotation	arm_flex_r	arm_add_r	arm_rot_r	elbow_flex_r	pro_sup_r	wrist_flex_r	wrist_dev_r	arm_flex_l	arm_add_l	arm_rot_l	elbow_flex_l	pro_sup_l	wrist_flex_l	wrist_dev_l
     27.11500000	     -3.21575080	     -4.02275236	     -5.05518901	      0.94437124	      0.92645461	      0.47110579	     17.61264243	      1.03813646	     -6.95229074	     21.89218088	     21.89218088	      9.70999431	      0.05784957	     -4.77355752	      5.94821355	     -8.86564001	     -9.78847851	     33.69829971	     33.69829971	     16.80889301	    -13.70336532	     -2.62365256	     -8.63771947	      6.68679525	      0.99019335	     -1.90908716	    -16.07941549	    -16.59421590	     39.38187325	     45.82049981	      0.00000000	      0.00000000	     15.66202173	    -15.67094235	    -17.08608247	     74.90962773	     47.87241571	      0.00000000	      0.00000000
     27.13314286	     -2.97924743	     -4.06913913	     -4.50331536	      0.94477257	      0.92695169	      0.47539547	     16.88908622	      1.29464968	     -7.19219877	     21.88158805	     21.88158805	     10.19183156	     -0.36699585	     -4.68009826	      7.28800613	     -9.80101124	     -9.27721748	     36.83188014	     36.83188014	     13.02976336	    -14.99898186	     -9.20168111	     -8.54367147	      6.71437112	      1.39730857	     -1.71923070	    -16.39513894	    -16.88756179	     40.75971895	     45.79307632	      0.00000000	      0.00000000	     15.28607675	    -15.30532291	    -15.13902060	     70.94369161	     47.68583439	      0.00000000	      0.00000000
     27.15128571	     -2.69223509	     -4.13334903	     -3.90448210	      0.94492900	      0.92731119	      0.47951898	     16.13113924	      1.53251171	     -7.59845407	     21.87551058	     21.87551058	     10.61694929	     -0.55603175	     -4.76935095	      9.09126423	    -10.68279356	     -8.28812389	     40.91446794	     40.91446794	     11.25560608	    -15.38702692	     -9.99707169	     -8.62776356	      6.66336126	      1.26330717	     -0.77031444	    -16.63730648	    -16.96200136	     41.37677499	     45.78054768	      0.00000000	      0.00000000	     13.75895114	    -14.79054906	    -14.70190507	     69.51248018	     47.62225642	      0.00000000	      0.00000000
     27.16942857	     -2.40925365	     -4.13840915	     -3.28343646	      0.94481127	      0.92739168	      0.48353578	     15.53750303	      1.75706342	     -7.73235003	     22.11455824	     22.11455824	     11.08941816	     -1.30299799	     -4.78079613	     10.97284615	    -11.48537623	     -7.27039853	     44.86475379	     44.86475379	      8.40714922	    -16.10373169	    -12.53932518	     -8.65560381	      6.58239825	      1.09464385	      0.09918152	    -16.92204851	    -16.61017184	     42.59665878	     45.72585308	      0.00000000	      0.00000000	     12.93261384	    -14.51227518	    -13.65047187	     65.67016408	     47.48719098	      0.00000000	      0.00000000
     27.18757143	     -2.10331470	     -4.24451119	     -2.61785034	      0.94443139	      0.92723567	      0.48731160	     14.94316481	      2.01950470	     -8.18233971	     22.37735412	     22.37735412	     11.55788330	     -1.63915915	     -4.91678934	     13.06041259	    -12.27703771	     -5.98240918	     49.05791306	     49.05791306	      6.17562384	    -16.43040603	    -12.82890609	     -8.88925162	      6.54096145	      1.18672800	      1.05070280	    -17.26877263	    -16.62674136	     43.24073545	     45.70954999	      0.00000000	      0.00000000	     11.52971712	    -13.78667463	    -13.17618386	     64.23253769	     47.42011732	      0.00000000	      0.00000000
     27.20571429	     -1.87410105	     -4.29441301	     -1.92414035	      0.94381172	      0.92664140	      0.49087232	     14.57811090	      2.23490438	     -8.48139202	     22.86650941	     22.86650941	     12.04117304	     -2.28565385	     -5.02851577	     15.29502417	    -12.86894552	     -4.54774799	     53.12099972	     53.12099972	      3.92078589	    -16.79169787	    -12.73626835	     -8.94730938	      6.44026656	      0.93911447	      2.16407699	    -17.50891950	    -16.57413738	     44.16244767	     45.68007558	      0.00000000	      0.00000000	     10.07847556	    -13.31741701	    -12.66310939	     62.00534265	     47.33827027	      0.00000000	      0.00000000
     27.22385714	     -1.63331587	     -4.15867504	     -1.24570627	      0.94292877	      0.92596030	      0.49412988	     14.36676119	      2.30028136	     -8.45221951	     23.60825889	     23.60825889	     12.62476892	     -3.53884214	     -4.86492218	     17.47741567	    -13.05135266	     -3.10561518	     56.90444468	     56.90444468	      2.23952708	    -17.07369513	    -10.80054557	     -9.03354225	      6.19900749	      0.72506731	      3.09894016	    -17.77830597	    -15.99065646	     45.94698511	     45.59488846	      0.00000000	      0.00000000	      9.49750287	    -12.99663310	    -11.72801775	     57.03576261	     47.19507297	      0.00000000	      0.00000000
     27.24200000	     -1.35539179	     -4.28180852	     -0.52986207	      0.94193126	      0.92512262	      0.49721673	     14.02758985	      2.56509946	     -8.84378292	     24.18190712	     24.18190712	     13.11823941	     -4.10150067	     -4.96774031	     19.53574451	    -13.49606508	     -1.73162154	     60.26907939	     60.26907939	      0.45384296	    -17.43510498	     -9.74624041	     -9.30890488	      6.16750600	      0.91414054	      4.04620537	    -18.20157566	    -16.01102817	     46.79365871	     45.57190434	      0.00000000	      0.00000000	      8.11401392	    -12.23631983	    -11.29419508	     55.31919111	     47.12546944	      0.00000000	      0.00000000
     27.26014286	     -1.20292477	     -4.14543619	      0.15181309	      0.94065896	      0.92403849	      0.49988698	     14.02207525	      2.57011386	     -8.90987494	     25.09317700	     25.09317700	     13.90530247	     -5.07239605	     -4.32378751	     21.81157059	    -13.33280206	     -0.28285991	     63.65843415	     63.65843415	      1.47914358	    -16.99053857	     -1.94190500	     -9.36374780	      5.95625491	      1.49100991	      3.96351645	    -18.82045210	    -15.57538245	     49.78791930	     45.45772680	      0.00000000	      0.00000000	      8.45406852	    -11.47774187	    -10.00543974	     49.08776925	     46.94890947	      0.00000000	      0.00000000
     27.27828571	     -1.03049151	     -4.13121580	      0.83511816	      0.93935680	      0.92288818	      0.50247803	     13.92348026	      2.71764749	     -9.04649151	     25.84189586	     25.84189586	     14.43298276	     -6.05472082	     -4.29019678	     23.63062047	    -13.44079645	      0.74393554	     65.94012199	     65.94012199	      0.59940156	    -17.81283900	     -0.09089764	     -9.53869024	      5.81256985	      1.04731421	      5.40565746	    -18.80132630	    -15.84405406	     51.29063149	     45.42705610	      0.00000000	      0.00000000	      6.68005302	    -11.15217764	     -9.56926822	     46.90790417	     46.86916154	      0.00000000	      0.00000000
     27.29642857	     -0.80100661	     -4.11062891	      1.47709203	      0.93795944	      0.92195720	      0.50474572	     13.73215346	      2.85891529	     -9.14266231	     26.51860776	     26.51860776	     15.06415628	     -6.90777410	     -3.71929612	     25.34531779	    -13.40025602	      1.68370360	     67.94809001	     67.94809001	      2.02363744	    -18.11230911	      6.67018053	     -9.79639693	      5.72193891	      1.53077501	      5.98282583	    -19.24384061	    -16.12700590	     53.45189448	     45.38214604	      0.00000000	      0.00000000	      6.23243663	    -10.45135948	     -8.79064437	     42.75726270	     46.75282667	      0.00000000	      0.00000000
     27.31457143	     -0.66962852	     -4.15399601	      2.11168896	      0.93651389	      0.92086170	      0.50695675	     13.63238375	      3.06469456	     -9.29803526	     27.13794819	     27.13794819	     15.49756809	     -7.77987301	     -3.65247861	     26.79704991	    -13.69155679	      2.12768036	     68.97436582	     68.97436582	      2.19086361	    -18.80293898	      8.34843872	     -9.94829986	      5.66404505	      1.14634383	      7.52692811	    -19.12911579	    -16.44623916	     55.07891486	     45.34981768	      0.00000000	      0.00000000	      4.39937965	    -10.11560671	     -8.41907089	     40.79753923	     46.67616320	      0.00000000	      0.00000000
     27.33271429	     -0.53930474	     -4.15706857	      2.71452580	      0.93497423	      0.92004356	      0.50881015	     13.44650256	      3.23682640	     -9.38624397	     27.59019717	     27.59019717	     16.04557669	     -8.56065403	     -3.09785211	     28.20048972	    -13.82087787	      2.46525063	     69.62777361	     69.62777361	      4.68302374	    -19.08535314	     15.23349477	    -10.17166048	      5.62455457	      1.64790748	      8.14004406	    -19.46575087	    -16.98393353	     57.54762012	     45.30769930	      0.00000000	      0.00000000	      3.73578342	     -9.51058236	     -7.55033369	     37.24941454	     46.54928768	      0.00000000	      0.00000000
     27.35085714	     -0.45302001	     -4.20869014	      3.30276985	      0.93340657	      0.91933205	      0.51055726	     13.23605289	      3.47099458	     -9.49674302	     27.87781358	     27.87781358	     16.44970475	     -9.29832828	     -2.74769878	     29.32827486	    -14.19044030	      2.41535387	     69.39598184	     69.39598184	      6.48991987	    -19.33875662	     18.67324726	    -10.34869447	      5.62415289	      1.77353867	      9.23439655	    -19.48442942	    -17.60640146	     59.85113283	     45.27599525	      0.00000000	      0.00000000	      2.42842318	     -9.11315705	     -6.75401227	     34.90769451	     46.42372659	      0.00000000	      0.00000000
     27.36900000	     -0.41953676	     -4.28787993	      3.90519096	      0.93180274	      0.91881617	      0.51203944	     12.97659220	      3.71190408	     -9.70091629	     27.94779392	     27.94779392	     16.71028366	     -9.91108318	     -2.62239914	     30.22387904	    -14.64291066	      2.09436151	     68.34168384	     68.34168384	      7.77858011	    -19.49365371	     19.66465440	    -10.47490182	      5.66403807	      1.47101386	     10.89769687	    -19.27016438	    -17.91043181	     61.69422318	     45.23646454	      0.00000000	      0.00000000	      0.64466508	     -8.79127874	     -6.35465305	     33.37145595	     46.34190295	      0.00000000	      0.00000000
     27.38714286	     -0.42977192	     -4.30200497	      4.48293308	      0.93014319	      0.91858381	      0.51317442	     12.67841776	      3.87034410	     -9.89499805	     27.85748281	     27.85748281	     16.91955252	    -10.44252613	     -2.45208003	     30.92200106	    -14.92517635	      1.60602190	     66.62726039	     66.62726039	      9.30940698	    -19.56235300	     20.97244927	    -10.57503850	      5.64011206	      1.35028758	     12.41675725	    -19.12831524	    -18.16569409	     63.71505142	     45.18862216	      0.00000000	      0.00000000	     -0.95024031	     -8.44992691	     -5.89455329	     31.89886786	     46.25345778	      0.00000000	      0.00000000
     27.40528571	     -0.61700148	     -4.28297996	      5.08017109	      0.92825969	      0.91841853	      0.51386914	     12.54370419	      3.91674170	    -10.21896519	     27.70133007	     27.70133007	     17.14409468	    -10.72237963	     -2.13474185	     31.65914622	    -14.92072976	      1.18287328	     64.38615168	     64.38615168	     11.11661853	    -19.58953048	     23.22900956	    -10.54247361	      5.63094514	      2.10569945	     12.62805824	    -19.52940541	    -18.93138470	     67.28481950	     45.12684482	      0.00000000	      0.00000000	     -1.79257677	     -8.12251138	     -4.15050503	     29.91699010	     45.99344855	      0.00000000	      0.00000000
